<svg xmlns="http://www.w3.org/2000/svg" viewBox="0 0 720 450" role="img" aria-labelledby="title desc">
  <title id="title">로컬 비즈니스 방문 안내 미리보기</title>
  <desc id="desc">따뜻한 공간, 서비스, 후기, 위치와 방문 예약으로 구성된 페이지</desc>
  <rect width="720" height="450" rx="24" fill="#f4f1e8"/>
  <rect x="38" y="34" width="644" height="164" rx="18" fill="#fff"/>
  <rect x="62" y="60" width="294" height="112" rx="14" fill="#d9c3a0"/>
  <path d="M74 150c48-54 93-58 136-10 33-36 75-40 132 10v22H74z" fill="#6f9178"/>
  <rect x="388" y="60" width="78" height="11" rx="5" fill="#96b8a2"/><rect x="388" y="85" width="242" height="23" rx="7" fill="#233a2d"/>
  <rect x="388" y="121" width="205" height="10" rx="5" fill="#9b9a8f"/><rect x="388" y="150" width="104" height="25" rx="7" fill="#41785b"/>
  <g fill="#fff"><rect x="38" y="216" width="198" height="78" rx="14"/><rect x="261" y="216" width="198" height="78" rx="14"/><rect x="484" y="216" width="198" height="78" rx="14"/></g>
  <g fill="#41785b"><circle cx="67" cy="242" r="11"/><circle cx="290" cy="242" r="11"/><circle cx="513" cy="242" r="11"/></g>
  <rect x="38" y="313" width="405" height="101" rx="16" fill="#dce8df"/><path d="M65 389l82-54 69 34 76-36 124 56" fill="none" stroke="#7da089" stroke-width="12" stroke-linecap="round"/>
  <circle cx="286" cy="354" r="14" fill="#c6634c"/><rect x="465" y="313" width="217" height="101" rx="16" fill="#233a2d"/>
  <rect x="491" y="338" width="148" height="13" rx="6" fill="#f4f1e8"/><rect x="491" y="369" width="106" height="25" rx="7" fill="#7daf8d"/>
</svg>
